<mxfile host="app.diagrams.net" modified="2024-01-23T02:47:47.746Z" agent="Mozilla/5.0 (Macintosh; Intel Mac OS X 10_15_7) AppleWebKit/537.36 (KHTML, like Gecko) Chrome/120.0.0.0 Safari/537.36" version="22.1.21" etag="4jGTsZKDSOZDIRXYGd7Y" type="github">
  <diagram name="Page-1" id="S1rUACISWY6sOPMUhKgR">
    <mxGraphModel>
      <root>
        <mxCell id="0" />
        <mxCell id="1" parent="0" />
      </root>
    </mxGraphModel>
  </diagram>
</mxfile>
